<?xml version="1.0" encoding="utf-8"?>
<!-- Generator: Adobe Illustrator 23.0.1, SVG Export Plug-In . SVG Version: 6.00 Build 0)  -->
<svg version="1.1" id="Layer_1" xmlns="http://www.w3.org/2000/svg" xmlns:xlink="http://www.w3.org/1999/xlink" x="0px" y="0px"
	 viewBox="0 0 1479 333" style="enable-background:new 0 0 1479 333;" xml:space="preserve">
<style type="text/css">
	.st0{fill:#000000;stroke:#CEEA26;stroke-width:2;stroke-miterlimit:10;}
	.st1{fill:#000000;}
	.st2{fill:#000000;}
</style>
<g>
	<g>
		<path class="st0" d="M151.91,317.64l-1.15-0.66l-131.2-75.75V88.41L151.91,12l132.35,76.41v152.82L151.91,317.64z M24.16,238.58
			l127.75,73.76l127.75-73.76V91.06L151.91,17.31L24.16,91.06V238.58z"/>
	</g>
	<g>
		<path class="st1" d="M161.3,268.82c-16.5-10.39-39.62-29.25-56.04-60.16c-15.97-30.05-18.78-58.7-18.33-77.44l3.57,0.09
			c-0.44,18.32,2.31,46.31,17.91,75.68c16.06,30.21,38.66,48.66,54.79,58.81L161.3,268.82z"/>
	</g>
	<g>
		<path class="st1" d="M142.31,268.82l-1.9-3.02c16.13-10.16,38.73-28.6,54.79-58.81c15.61-29.36,18.36-57.36,17.91-75.68l3.57-0.09
			c0.45,18.74-2.36,47.39-18.33,77.44C181.92,239.56,158.81,258.43,142.31,268.82z"/>
	</g>
	<g>
		<path class="st1" d="M216.33,127.88c0.01-0.01-1.6-2.21-1.75-2.43c-2.69-4.02-4.54-8.43-6.05-13c-0.23-0.68-0.44-1.37-0.61-2.07
			c-0.55-2.26-0.77-4.58-0.67-6.9c0.07-1.61,0.19-3.79,1.15-6.45c0.31-0.86,1.44-3.79,4.15-6.72c1.49-1.61,2.98-2.7,4.08-3.4
			c0.39,0.46,0.95,1.14,1.62,1.96c1.22,1.51,1.82,2.26,2.55,3.32c0.34,0.49,1.28,1.88,2.3,3.83c0.73,1.39,1.37,2.83,1.82,4.34
			c0.6,2.03,0.77,4.25,0.85,6.36c0.12,3.25-0.55,6.29-1.73,9.3c-1.65,4.2-4.02,8.19-7.22,11.39
			C216.65,127.56,216.49,127.72,216.33,127.88z"/>
	</g>
	<g>
		<path class="st1" d="M220.9,152.43c-0.61-4.94-0.88-10.08,0.28-14.98c1.06-4.49,2.69-8.94,5.44-12.68
			c2.73-3.71,6.17-6.89,10.08-9.32c1.22-0.76,2.48-1.47,3.77-2.11c0.64-0.32,1.3-0.63,1.95-0.92c0.36-0.16,0.49-0.23,0.63,0.19
			c0.17,0.5,0.22,1.07,0.3,1.59c0.28,1.83,0.37,3.69,0.55,5.54c0.25,2.59,0.12,5.2-0.24,7.77c-0.65,4.68-1.92,9.14-4.55,13.13
			c-0.7,1.05-1.47,2.06-2.32,3c-0.92,1.02-1.72,1.71-2.17,2.11c-3,2.6-6.67,4.89-10.49,6.06
			C223.89,151.86,220.92,152.57,220.9,152.43z"/>
	</g>
	<g>
		<path class="st1" d="M212.31,187.03c4.63,1.83,9.94,1.57,14.57-0.26c4.63-1.83,8.58-5.14,11.63-9.07
			c3.05-3.93,5.22-8.48,6.89-13.17c0.09-0.24,0.17-0.53,0.02-0.74c-0.12-0.16-0.33-0.21-0.52-0.25c-6.78-1.38-14.17-0.99-20.16,2.48
			c-3.63,2.1-6.6,5.25-8.75,8.85c-2.17,3.64-3.33,7.66-4.24,11.77"/>
	</g>
	<g>
		<path class="st1" d="M200.88,217.1c1.35,0.68,3.01,1.01,4.47,1.34c1.56,0.35,3.14,0.6,4.73,0.72c3.15,0.24,6.35-0.03,9.37-0.98
			c0.33-0.11,0.66-0.22,0.99-0.34c6.98-2.59,12.19-8.81,14.87-15.75c0.13-0.33,0.24-0.73,0.01-1c-0.14-0.17-0.38-0.22-0.59-0.27
			c-5.79-1.21-11.86-1.91-17.56-0.33c-5.16,1.43-9.65,4.72-12.99,8.85c-1.77,2.19-3.18,4.62-4.35,7.18"/>
	</g>
	<g>
		<path class="st1" d="M217.01,232.8c-3.01,4.58-6.89,8.4-11.99,10.61c-1.26,0.55-2.56,0.99-3.89,1.32
			c-6.23,1.54-13.02,0.62-18.67-2.44c-0.16-0.08-0.33-0.2-0.35-0.37c-0.01-0.13,0.07-0.25,0.14-0.36c1.73-2.46,3.57-4.97,5.87-6.98
			c4.6-4,10.79-5.85,16.83-5.67c4.28,0.12,8.5,1.24,12.35,3.08"/>
	</g>
	<g>
		<path class="st1" d="M173.8,236.29c3.56-6.79,3.32-15.51,0-22.34c-1.4-2.88-3.4-5.42-5.71-7.62c-1.42-1.35-2.97-2.69-4.61-3.83
			c-0.85-0.59-1.74-1.14-2.66-1.62c-0.32-0.17-1.12-0.75-1.49-0.71c-1.01,0.1-1.43,1.77-1.71,2.55c-0.82,2.27-1.28,4.66-1.52,7.07
			c-0.22,2.24-0.37,4.61-0.02,6.88c0.89,5.82,4.71,10.7,9.17,14.32C165.87,231.49,173.6,236.68,173.8,236.29z"/>
	</g>
	<g>
		<path class="st1" d="M190.08,209.55c0.85,0.16,1.29-4.91,1.35-5.46c0.36-3.16,0.13-6.23-0.33-9.38
			c-0.52-3.54-1.38-6.99-3.08-10.17c-2.05-3.82-4.88-7.21-8.16-10.02c-0.85-0.73-1.73-1.42-2.64-2.07c-0.3-0.22-3.33-2.07-3.29-2.22
			c-0.08,0.28-0.19,0.7-0.32,1.21c-0.22,0.87-0.37,1.53-0.45,1.85c-0.52,2.28-1.05,4.68-1.27,7.05c-0.23,2.48-0.04,4.96,0.15,7.44
			c0.24,3.21,0.9,6.37,2.21,9.32c1.25,2.82,3.06,5.25,5.41,7.29c2.6,2.26,5.56,3.61,8.76,4.84
			C188.42,209.23,190.07,209.54,190.08,209.55z"/>
	</g>
	<g>
		<path class="st1" d="M201.37,181.66c0.21-0.92,0.44-2.09,0.64-3.45c1.22-8.39,0.39-17.62-5.29-24.32
			c-1.9-2.24-4.21-4.05-6.64-5.67c-2.1-1.4-4.42-2.58-6.89-3.25l-1.08-0.38c0,0.36-0.01,0.87,0,1.47c0.01,0.56,0.03,2.05,0.19,4.08
			c0.37,4.72,1.23,9.41,2.67,13.92c2.14,6.67,5.67,14.61,12.91,16.94c0.44,0.14,0.88,0.26,1.33,0.35l1.4,0.32H201.37z"/>
	</g>
	<g>
		<path class="st1" d="M207.31,148.66c2.39-8.26,0.33-17.37-5.1-23.99c-3.05-3.72-7.01-6.67-11.43-8.56l-0.96-0.45
			c-0.12,0.31-0.29,0.77-0.45,1.34c-0.94,3.47-0.76,7.15-0.11,10.65c1.43,7.72,5.94,15.11,12.97,18.91
			C202.62,146.78,207.26,148.82,207.31,148.66z"/>
	</g>
	<g>
		<path class="st1" d="M87.49,127.91c-0.01-0.01,1.6-2.21,1.75-2.43c2.69-4.02,4.54-8.43,6.05-13c0.23-0.68,0.44-1.37,0.61-2.07
			c0.55-2.26,0.77-4.58,0.67-6.9c-0.07-1.61-0.19-3.79-1.15-6.45c-0.31-0.86-1.44-3.79-4.15-6.72c-1.49-1.61-2.98-2.7-4.08-3.4
			c-0.39,0.46-0.95,1.14-1.62,1.96c-1.22,1.51-1.82,2.26-2.55,3.32c-0.34,0.49-1.28,1.88-2.3,3.83c-0.73,1.39-1.37,2.83-1.82,4.34
			c-0.6,2.03-0.77,4.25-0.85,6.36c-0.12,3.25,0.55,6.29,1.73,9.3c1.65,4.2,4.02,8.19,7.22,11.39
			C87.17,127.59,87.33,127.75,87.49,127.91z"/>
	</g>
	<g>
		<path class="st1" d="M82.92,152.46c0.61-4.94,0.88-10.08-0.28-14.98c-1.06-4.49-2.69-8.94-5.44-12.68
			c-2.73-3.71-6.17-6.89-10.08-9.32c-1.22-0.76-2.48-1.47-3.77-2.11c-0.64-0.32-1.3-0.63-1.95-0.92c-0.36-0.16-0.49-0.23-0.63,0.19
			c-0.17,0.5-0.22,1.07-0.3,1.59c-0.28,1.83-0.37,3.69-0.55,5.54c-0.25,2.59-0.12,5.2,0.24,7.77c0.65,4.68,1.92,9.14,4.55,13.13
			c0.7,1.05,1.47,2.06,2.32,3c0.92,1.02,1.72,1.71,2.17,2.11c3,2.6,6.67,4.89,10.49,6.06C79.93,151.89,82.9,152.6,82.92,152.46z"/>
	</g>
	<g>
		<path class="st1" d="M91.52,187.06c-4.63,1.83-9.94,1.57-14.57-0.26c-4.63-1.83-8.58-5.14-11.63-9.07
			c-3.05-3.93-5.22-8.48-6.89-13.17c-0.09-0.24-0.17-0.53-0.02-0.74c0.12-0.16,0.33-0.21,0.52-0.25c6.78-1.38,14.17-0.99,20.16,2.48
			c3.63,2.1,6.6,5.25,8.75,8.85c2.17,3.64,3.33,7.66,4.24,11.77"/>
	</g>
	<g>
		<path class="st1" d="M102.94,217.13c-1.35,0.68-3.01,1.01-4.47,1.34c-1.56,0.35-3.14,0.6-4.73,0.72
			c-3.15,0.24-6.35-0.03-9.37-0.98c-0.33-0.11-0.66-0.22-0.99-0.34c-6.98-2.59-12.19-8.81-14.87-15.75c-0.13-0.33-0.24-0.73-0.01-1
			c0.14-0.17,0.38-0.22,0.59-0.27c5.79-1.21,11.86-1.91,17.56-0.33c5.16,1.43,9.65,4.72,12.99,8.85c1.77,2.19,3.18,4.62,4.35,7.18"
			/>
	</g>
	<g>
		<path class="st1" d="M86.81,232.83c3.01,4.58,6.89,8.4,11.99,10.61c1.26,0.55,2.56,0.99,3.89,1.32
			c6.23,1.54,13.02,0.62,18.67-2.44c0.16-0.08,0.33-0.2,0.35-0.37c0.01-0.13-0.07-0.25-0.14-0.36c-1.73-2.46-3.57-4.97-5.87-6.98
			c-4.6-4-10.79-5.85-16.83-5.67c-4.28,0.12-8.5,1.24-12.35,3.08"/>
	</g>
	<g>
		<path class="st1" d="M130.02,236.31c-3.56-6.79-3.32-15.51,0-22.34c1.4-2.88,3.4-5.42,5.71-7.62c1.42-1.35,2.97-2.69,4.61-3.83
			c0.85-0.59,1.74-1.14,2.66-1.62c0.32-0.17,1.12-0.75,1.49-0.71c1.01,0.1,1.43,1.77,1.71,2.55c0.82,2.27,1.28,4.66,1.52,7.07
			c0.22,2.24,0.37,4.61,0.02,6.88c-0.89,5.82-4.71,10.7-9.17,14.32C137.95,231.52,130.23,236.71,130.02,236.31z"/>
	</g>
	<g>
		<path class="st1" d="M113.74,209.57c-0.85,0.16-1.29-4.91-1.35-5.46c-0.36-3.16-0.13-6.23,0.33-9.38
			c0.52-3.54,1.38-6.99,3.08-10.17c2.05-3.82,4.88-7.21,8.16-10.02c0.85-0.73,1.73-1.42,2.64-2.07c0.3-0.22,3.33-2.07,3.29-2.22
			c0.08,0.28,0.19,0.7,0.32,1.21c0.22,0.87,0.37,1.53,0.45,1.85c0.52,2.28,1.05,4.68,1.27,7.05c0.23,2.48,0.04,4.96-0.15,7.44
			c-0.24,3.21-0.9,6.37-2.21,9.32c-1.25,2.82-3.06,5.25-5.41,7.29c-2.6,2.26-5.56,3.61-8.76,4.84
			C115.4,209.26,113.75,209.57,113.74,209.57z"/>
	</g>
	<g>
		<path class="st1" d="M102.45,181.68c-0.21-0.92-0.44-2.09-0.64-3.45c-1.22-8.39-0.39-17.62,5.29-24.32
			c1.9-2.24,4.21-4.05,6.64-5.67c2.1-1.4,4.42-2.58,6.89-3.25l1.08-0.38c0,0.36,0.01,0.87,0,1.47c-0.01,0.56-0.03,2.05-0.19,4.08
			c-0.37,4.72-1.23,9.41-2.67,13.92c-2.14,6.67-5.67,14.61-12.91,16.94c-0.44,0.14-0.88,0.26-1.33,0.35l-1.4,0.32H102.45z"/>
	</g>
	<g>
		<path class="st1" d="M96.51,148.69c-2.39-8.26-0.33-17.37,5.1-23.99c3.05-3.72,7.01-6.67,11.43-8.56l0.96-0.45
			c0.12,0.31,0.29,0.77,0.45,1.34c0.94,3.47,0.76,7.15,0.11,10.65c-1.43,7.72-5.94,15.11-12.97,18.91
			C101.2,146.81,96.56,148.85,96.51,148.69z"/>
	</g>
</g>
<g>
	<path class="st1" d="M396.53,36.89h12.85c9.28,0,14.28,5,14.28,14.28v89.98h47.49V51.17c0-9.28,5-14.28,14.28-14.28h12.85
		c9.28,0,14.28,5,14.28,14.28v221.38c0,9.28-5,14.28-14.28,14.28h-12.85c-9.28,0-14.28-5-14.28-14.28v-94.27h-47.49v94.27
		c0,9.28-5,14.28-14.28,14.28h-12.85c-9.28,0-14.28-5-14.28-14.28V51.17C382.25,41.89,387.25,36.89,396.53,36.89z"/>
	<path class="st1" d="M609.7,34.03h2.86c37.85,0,62.84,15,62.84,52.85v149.97c0,37.85-24.99,52.85-62.84,52.85h-2.86
		c-37.85,0-62.84-15-62.84-52.85V86.88C546.85,48.67,571.85,34.03,609.7,34.03z M611.13,253.27c13.57,0,22.85-5,22.85-22.85V93.31
		c0-17.85-9.28-22.85-22.85-22.85s-22.85,5-22.85,22.85v137.11C588.27,248.27,597.56,253.27,611.13,253.27z"/>
	<path class="st1" d="M812.87,238.63c-2.5,8.21-7.5,11.78-15.35,11.78c-7.86,0-13.21-3.57-15.71-11.78l-33.56-104.62v138.54
		c0,9.28-5,14.28-14.28,14.28h-10c-9.28,0-14.28-5-14.28-14.28V51.17c0-9.28,5-14.28,14.28-14.28h12.85
		c8.21,0,13.57,3.57,16.07,11.78l44.28,133.54l44.63-133.54c2.5-7.86,7.86-11.78,16.07-11.78h14.28c9.28,0,14.28,5,14.28,14.28
		v221.38c0,9.28-5,14.28-14.28,14.28h-11.43c-9.28,0-14.28-5-14.28-14.28V134.01L812.87,238.63z"/>
	<path class="st1" d="M1018.53,286.84h-82.13c-9.28,0-14.28-5-14.28-14.28V51.17c0-9.28,5-14.28,14.28-14.28h81.05
		c9.28,0,14.28,5,14.28,14.28v7.86c0,9.28-5,14.28-14.28,14.28h-53.92v68.56h42.85c9.28,0,14.28,5,14.28,14.28V164
		c0,9.28-5,14.28-14.28,14.28h-42.85v72.13h54.99c9.28,0,14.28,5,14.28,14.28v7.86C1032.81,281.84,1027.82,286.84,1018.53,286.84z"
		/>
</g>
<g>
	<path class="st2" d="M1133.14,286.5c0,3.57-2.14,5.71-5.71,5.71h-2.85c-3.57,0-5.71-2.14-5.71-5.71v-93.82l-54.22-143.77
		c-1.43-4.28,0.36-6.42,4.64-6.42h2.85c3.21,0,5.71,1.78,6.78,4.64L1126,174.84l47.09-127.71c1.07-2.85,3.57-4.64,6.78-4.64h2.85
		c4.28,0,6.06,2.14,4.64,6.42l-54.22,143.77V286.5z"/>
	<path class="st2" d="M1327.56,49.27l-46.38,114.87l51.73,121.29c1.78,4.28,0,6.78-4.28,6.78h-4.64c-3.21,0-5.35-1.43-6.42-4.28
		l-46.02-110.59l-46.38,110.59c-1.07,2.85-3.21,4.28-6.42,4.28h-3.92c-4.28,0-6.06-2.5-4.28-6.78l52.8-123.07l-48.87-113.09
		c-1.78-4.28,0-6.78,4.28-6.78h4.64c3.21,0,5.35,1.43,6.42,4.28l42.81,104.52l40.31-104.17c1.07-2.85,3.57-4.64,6.78-4.64h3.57
		C1327.56,42.49,1328.98,45.34,1327.56,49.27z"/>
	<path class="st2" d="M1459.19,292.21h-84.9c-3.57,0-5.71-2.14-5.71-5.71V48.2c0-3.57,2.14-5.71,5.71-5.71h83.83
		c3.57,0,5.71,2.14,5.71,5.71v2.14c0,3.57-2.14,5.71-5.71,5.71h-75.27v102.74h64.21c3.57,0,5.71,2.14,5.71,5.71v2.14
		c0,3.57-2.14,5.71-5.71,5.71h-64.21v106.31h76.34c3.57,0,5.71,2.14,5.71,5.71v2.14C1464.9,290.07,1462.76,292.21,1459.19,292.21z"
		/>
</g>
</svg>
